<?xml version="1.0" encoding="UTF-8" standalone="no"?>
<svg
   xmlns:dc="http://purl.org/dc/elements/1.1/"
   xmlns:cc="http://creativecommons.org/ns#"
   xmlns:rdf="http://www.w3.org/1999/02/22-rdf-syntax-ns#"
   xmlns:svg="http://www.w3.org/2000/svg"
   xmlns="http://www.w3.org/2000/svg"
   xmlns:sodipodi="http://sodipodi.sourceforge.net/DTD/sodipodi-0.dtd"
   xmlns:inkscape="http://www.inkscape.org/namespaces/inkscape"
   version="1.1"
   id="svg2"
   viewBox="0 0 468.86345 246.64823"
   height="69.609612mm"
   width="132.32368mm"
   inkscape:version="0.91 r13725"
   sodipodi:docname="allagilegray.svg"
   inkscape:export-filename="C:\Users\johnf\Documents\allagile.png"
   inkscape:export-xdpi="90"
   inkscape:export-ydpi="90">
  <sodipodi:namedview
     pagecolor="#ffffff"
     bordercolor="#666666"
     borderopacity="1"
     objecttolerance="10"
     gridtolerance="10"
     guidetolerance="10"
     inkscape:pageopacity="0"
     inkscape:pageshadow="2"
     inkscape:window-width="1366"
     inkscape:window-height="715"
     id="namedview16"
     showgrid="false"
     inkscape:zoom="1.4142136"
     inkscape:cx="241.05777"
     inkscape:cy="138.53603"
     inkscape:window-x="-8"
     inkscape:window-y="-8"
     inkscape:window-maximized="1"
     inkscape:current-layer="svg2"
     showguides="false" />
  <defs
     id="defs4" />
  <metadata
     id="metadata7">
    <rdf:RDF>
      <cc:Work
         rdf:about="">
        <dc:format>image/svg+xml</dc:format>
        <dc:type
           rdf:resource="http://purl.org/dc/dcmitype/StillImage" />
        <dc:title></dc:title>
      </cc:Work>
    </rdf:RDF>
  </metadata>
  <path
     inkscape:connector-curvature="0"
     style="fill:#2a7fff;fill-opacity:1;fill-rule:evenodd;stroke:#2a7fff;stroke-width:0.5px;stroke-linecap:butt;stroke-linejoin:miter;stroke-opacity:1"
     d="m 147.4826,116.15402 c 6.08009,17.27769 16.68518,32.90993 31.875,46.875 15.01685,10.90936 32.06909,18.15503 51.2267,21.61102 34.13684,5.17327 53.86877,-2.59611 76.61491,-15.03494 37.69742,-22.23662 36.66838,-27.87475 43.13276,-51.57608 4.74668,-18.279951 -7.22822,-24.981901 -17.79891,-36.913821 -30.96167,-24.67395 -46.98205,-12.569625 -71.92547,-1.83618 35.00551,8.249265 45.46126,19.77183 56.25,31.250001 11.93342,16.19894 -4.32743,28.0901 -22.5,39.375 -31.53172,16.64389 -48.18336,13.84502 -72.5,15 -17.81664,0.49745 -27.3254,-12.45429 -40,-23.75 -8.83006,-13.3234 -13.2593,-20.00466 -21.875,-27.5 -9.09902,-9.57942 -15.92383,-2.90155 -12.5,2.5 z"
     id="path4221" />
  <path
     inkscape:connector-curvature="0"
     style="fill:#00ff00;fill-rule:evenodd;stroke:#00ff00;stroke-width:0.5px;stroke-linecap:butt;stroke-linejoin:miter;stroke-opacity:1"
     d="m 117.48259,100.98709 c 1.18953,-13.324996 3.38803,-22.302371 15.83852,-29.192541 27.02379,5.78186 40.79353,16.75903 52.17391,35.714281 -22.23719,2.45603 -44.94747,0.95751 -68.01242,-6.52174 z"
     id="path4223" />
  <path
     inkscape:connector-curvature="0"
     style="fill:#1a1a1a;fill-rule:evenodd;stroke:none;stroke-width:1px;stroke-linecap:butt;stroke-linejoin:miter;stroke-opacity:1"
     d="m 263.2968,77.261414 c 0.029,-0.116845 9.51344,0.51964 24.51081,6.400805 5.05077,1.97739 11.16288,4.779675 16.88995,8.881965 3.61977,2.58298 7.34808,5.93029 10.1553,10.267346 2.06876,3.20548 3.55439,7.05887 3.86791,11.24483 0.25745,3.80852 -0.45849,7.68735 -1.98022,11.30707 -1.61791,3.84968 -3.99018,7.35857 -6.81952,10.52485 -3.12095,3.50388 -6.73137,6.60089 -10.67088,9.3765 -4.26131,3.00646 -8.8642,5.62603 -13.73142,7.91113 -4.3254,2.0314 -8.83653,3.80202 -13.50709,5.29713 -6.71783,2.15046 -13.49889,3.64572 -20.18943,4.57472 -13.05562,1.82193 -25.57799,1.41631 -37.05181,-0.93429 -6.42957,-1.31883 -12.40349,-3.24085 -17.85814,-5.64473 0,0 -1e-5,0 -1e-5,0 -6.23615,-2.74882 -11.67632,-6.08931 -16.30678,-9.69044 -5.92725,-4.61172 -10.46921,-9.60767 -13.83953,-14.13442 -8.30504,-11.15897 -9.91809,-19.097 -9.85079,-19.12672 0.82302,-0.3635 3.34348,7.16257 11.97327,17.4508 3.49937,4.17343 8.07044,8.75856 13.86895,12.94112 4.53074,3.26972 9.79533,6.28201 15.78155,8.7447 0,0 0,0 0,0 5.23799,2.15537 10.95602,3.85871 17.1055,5.01159 10.981,2.06164 22.95188,2.29779 35.48316,0.48821 6.42493,-0.93246 12.92827,-2.38521 19.36033,-4.44247 4.4724,-1.43047 8.78856,-3.11432 12.92465,-5.03947 4.64906,-2.16466 9.01892,-4.61152 13.0404,-7.40291 3.71736,-2.58412 7.0833,-5.39729 9.94889,-8.54688 2.5864,-2.8528 4.73216,-5.88756 6.14366,-9.14625 1.31187,-3.02917 1.9877,-6.20834 1.82182,-9.2502 -0.15118,-3.33306 -1.32853,-6.56787 -2.99577,-9.33699 -2.28403,-3.80473 -5.59494,-6.930471 -8.87864,-9.477481 -5.20841,-4.023645 -11.00651,-6.977445 -15.81879,-9.164265 -14.35127,-6.51201 -23.60918,-8.15277 -23.37733,-9.08525 z"
     id="path4160" />
  <path
     inkscape:connector-curvature="0"
     style="fill:#1a1a1a;fill-rule:evenodd;stroke:none;stroke-width:1px;stroke-linecap:butt;stroke-linejoin:miter;stroke-opacity:1"
     d="m 145.46903,112.44291 c 1.13446,-0.49668 5.10154,12.21696 18.62407,29.87908 5.10502,6.66747 11.84669,14.18721 20.37865,20.78719 6.27449,4.85584 13.66272,9.3187 22.02846,12.61611 0,0 1e-5,0 1e-5,0 7.044,2.77934 14.77297,4.72992 22.95937,5.5942 14.55111,1.54746 30.12395,-0.4065 45.6145,-5.67522 6.78538,-2.31308 13.4899,-5.22561 20.0101,-8.7345 6.90408,-3.71548 13.37032,-7.97518 19.33345,-12.65381 5.50462,-4.32138 10.53515,-8.97268 14.99526,-13.96733 4.15591,-4.65858 7.77038,-9.52697 10.63282,-14.68425 2.56677,-4.64102 4.50769,-9.38667 5.39584,-14.22795 0.40938,-2.21433 0.60029,-4.41889 0.51476,-6.57325 -0.0826,-2.09475 -0.41733,-4.14098 -1.02124,-6.064671 -0.61735,-1.976175 -1.52113,-3.84039 -2.64405,-5.521175 -1.23913,-1.86024 -2.7673,-3.51686 -4.43868,-4.957425 -1.97582,-1.703615 -4.18551,-3.116305 -6.45208,-4.30043 -2.80603,-1.46466 -5.74988,-2.58746 -8.64965,-3.481795 -8.49061,-2.622095 -17.27666,-3.48151 -24.41071,-3.854965 -21.85119,-1.132265 -34.59447,1.645385 -34.73939,0.499805 0.009,0.06967 12.59656,-3.72862 34.83481,-3.41901 7.2808,0.09746 16.31532,0.709545 25.35439,3.237465 3.08924,0.86525 6.27145,1.99933 9.37792,3.530675 2.51247,1.23753 5.00655,2.767905 7.31139,4.66931 1.95387,1.6125 3.76666,3.513905 5.29006,5.704415 1.37768,1.98591 2.49603,4.19746 3.27932,6.567565 0.7589,2.305195 1.19802,4.726376 1.32617,7.185796 0.1309,2.52336 -0.0484,5.06377 -0.48442,7.57377 -0.95553,5.4614 -3.00445,10.71177 -5.72474,15.69501 -3.01903,5.54902 -6.79827,10.74472 -11.12148,15.64276 -4.63819,5.25984 -9.85756,10.13972 -15.55768,14.64225 -6.1683,4.87508 -12.86789,9.30558 -20.03246,13.16074 -6.76609,3.64073 -13.73078,6.65202 -20.78553,9.03217 -16.12143,5.451 -32.43445,7.34928 -47.72072,5.57909 -8.60239,-1.00249 -16.70044,-3.16623 -24.06069,-6.20485 0,0 -1e-5,0 -1e-5,0 -8.74093,-3.61208 -16.36861,-8.42378 -22.77976,-13.62897 -8.71469,-7.07848 -15.41652,-15.00852 -20.38272,-22.02538 -13.12822,-18.54854 -16.11303,-31.68473 -16.25534,-31.62242 z"
     id="path4164" />
  <path
     inkscape:connector-curvature="0"
     style="fill:#1a1a1a;fill-rule:evenodd;stroke:none;stroke-width:1px;stroke-linecap:butt;stroke-linejoin:miter;stroke-opacity:1"
     d="m 120.55978,98.600109 c -0.64502,-0.220455 -0.74341,-1.889975 -0.45638,-4.40616 0.27355,-2.39803 0.97263,-6.119815 2.38472,-9.777095 0.0993,-0.25712 0.20122,-0.511895 0.3059,-0.764285 0.98208,-2.37631 2.23205,-4.40197 3.68436,-6.021135 3.11038,-3.44493 6.11901,-3.931135 6.53894,-3.2897 0.51688,0.78951 -1.36635,2.72168 -3.1067,5.82235 -0.88993,1.565145 -1.63604,3.22128 -2.49167,5.367985 -0.0905,0.22801 -0.18089,0.45799 -0.27149,0.69074 -1.4443,3.710465 -2.33468,6.37986 -3.65667,8.99082 -1.17498,2.320635 -2.27157,3.611865 -2.93101,3.38648 z"
     id="path4168" />
  <path
     inkscape:connector-curvature="0"
     style="fill:#1a1a1a;fill-rule:evenodd;stroke:none;stroke-width:1px;stroke-linecap:butt;stroke-linejoin:miter;stroke-opacity:1"
     d="m 179.37853,102.80921 c -0.95986,1.0503 -10.36695,-6.466561 -22.60733,-14.363881 -6.55384,-4.228455 -11.40514,-7.000655 -16.00206,-9.681525 -4.15659,-2.42407 -6.75964,-4.028905 -6.50182,-4.69063 0.24278,-0.6231 3.31462,-0.17992 7.98677,1.488255 4.75805,1.69885 10.78592,4.534845 17.22505,8.68409 12.82392,8.26347 20.78175,17.598181 19.89939,18.563691 z"
     id="path4172" />
  <path
     inkscape:connector-curvature="0"
     style="fill:#1a1a1a;fill-rule:evenodd;stroke:none;stroke-width:1px;stroke-linecap:butt;stroke-linejoin:miter;stroke-opacity:1"
     d="m 123.05978,102.08155 c 0.11149,-1.37549 14.3036,-1.34883 31.67883,0.0595 17.37522,1.40834 31.38636,3.66767 31.27487,5.04316 -0.11149,1.37549 -14.3036,1.34883 -31.67882,-0.0595 -17.37522,-1.40834 -31.38637,-3.66767 -31.27488,-5.04316 z"
     id="path4176" />
  <text
     sodipodi:linespacing="125%"
     xml:space="preserve"
     style="font-style:normal;font-variant:normal;font-weight:bold;font-stretch:normal;font-size:37.77688217px;line-height:125%;font-family:'Segoe Print';-inkscape-font-specification:'Segoe Print Bold';letter-spacing:0px;word-spacing:0px;fill:#1a1a1a;fill-opacity:1;stroke:none;stroke-width:1px;stroke-linecap:butt;stroke-linejoin:miter;stroke-opacity:1"
     x="175.92433"
     y="113.43542"
     id="text4180"
     transform="scale(1.0638371,0.93999354)"><tspan
       id="tspan4182"
       x="175.92433"
       y="113.43542"
       style="font-style:normal;font-variant:normal;font-weight:bold;font-stretch:normal;font-family:Arial;-inkscape-font-specification:'Arial Bold';fill:#1a1a1a">All</tspan></text>
  <text
     sodipodi:linespacing="125%"
     xml:space="preserve"
     style="font-style:normal;font-variant:normal;font-weight:bold;font-stretch:normal;font-size:37.77688217px;line-height:125%;font-family:'Segoe Print';-inkscape-font-specification:'Segoe Print Bold';letter-spacing:0px;word-spacing:0px;fill:#1a1a1a;fill-opacity:1;stroke:none;stroke-width:1px;stroke-linecap:butt;stroke-linejoin:miter;stroke-opacity:1"
     x="187.26712"
     y="144.62991"
     id="text4180-1"
     transform="scale(1.0638371,0.93999354)"><tspan
       id="tspan4182-7"
       x="187.26712"
       y="144.62991"
       style="font-style:normal;font-variant:normal;font-weight:bold;font-stretch:normal;font-family:Arial;-inkscape-font-specification:'Arial Bold';fill:#1a1a1a">Agile</tspan></text>
  <text
     xml:space="preserve"
     style="font-style:normal;font-weight:normal;font-size:40px;line-height:125%;font-family:sans-serif;letter-spacing:0px;word-spacing:0px;fill:#000000;fill-opacity:1;stroke:none;stroke-width:1px;stroke-linecap:butt;stroke-linejoin:miter;stroke-opacity:1"
     x="196.22214"
     y="-18.516815"
     id="text3343"
     sodipodi:linespacing="125%"><tspan
       sodipodi:role="line"
       id="tspan3345"
       x="196.22214"
       y="-18.516815" /></text>
  <flowRoot
     xml:space="preserve"
     id="flowRoot3351"
     style="fill:black;stroke:none;stroke-opacity:1;stroke-width:1px;stroke-linejoin:miter;stroke-linecap:butt;fill-opacity:1;font-family:sans-serif;font-style:normal;font-weight:normal;font-size:40px;line-height:125%;letter-spacing:0px;word-spacing:0px"><flowRegion
       id="flowRegion3353"><rect
         id="rect3355"
         width="741.755"
         height="316.78384"
         x="-57.982758"
         y="-41.144234" /></flowRegion><flowPara
       id="flowPara3357" /></flowRoot></svg>
